<svg xmlns="http://www.w3.org/2000/svg" viewBox="0 0 1200 1200"><g fill="#fff"><path d="M0 925h1200v275H0z"/><path d="M1199 926v273H1V926h1198m1-1H0v275h1200V925zM0 0h1200v925H0z"/><path d="M327.44 795.83L182.12 416.15h-2.34q4.09 45.12 4.1 107.22v272.46h-46V367.51h75l135.65 353.32h2.35l136.81-353.32h74.42v428.32H512.3v-276q0-47.46 4.1-103.13h-2.34L367.57 795.83zM1086.66 581.29q0 102.83-52 161.72t-144.58 58.88q-94.64 0-146-57.86T692.62 580.7q0-104.6 51.56-162.16T890.67 361q92.28 0 144.14 58.6t51.85 161.69zm-341.3 0q0 87 37.06 132t107.66 45q71.19 0 107.52-44.82t36.33-132.13q0-86.43-36.18-131.11t-107.08-44.72q-71.19 0-108.25 45t-37.06 130.78z"/></g><path fill="#eb5757" d="M0 925h1200v275H0z"/><path fill="#f75e5e" d="M0 0h1200v925H0z"/><path d="M327.44 795.83L182.12 416.15h-2.34q4.09 45.12 4.1 107.22v272.46h-46V367.51h75l135.65 353.32h2.35l136.81-353.32h74.42v428.32H512.3v-276q0-47.46 4.1-103.13h-2.34L367.57 795.83zM1086.66 581.29q0 102.83-52 161.72t-144.58 58.88q-94.64 0-146-57.86T692.62 580.7q0-104.6 51.56-162.16T890.67 361q92.28 0 144.14 58.6t51.85 161.69zm-341.3 0q0 87 37.06 132t107.66 45q71.19 0 107.52-44.82t36.33-132.13q0-86.43-36.18-131.11t-107.08-44.72q-71.19 0-108.25 45t-37.06 130.78z" fill="#fff"/></svg>